<svg width="32" height="32" viewBox="0 0 32 32" fill="none" xmlns="http://www.w3.org/2000/svg">
  <!-- Background circle -->
  <circle cx="16" cy="16" r="16" fill="#3B82F6"/>
  
  <!-- Left side: Markdown file icon -->
  <g transform="translate(4, 8)">
    <!-- File outline -->
    <path d="M2 0h8l3 3v12H2V0z" fill="white" opacity="0.9" stroke="white" stroke-width="0.5"/>
    <!-- Corner fold -->
    <path d="M10 0v3h3l-3-3z" fill="#3B82F6" opacity="0.7"/>
    <!-- Markdown "M" symbol -->
    <path d="M3 6h1.5l1 2 1-2H8v6H7V8.5L6 10.5 5 8.5V12H3V6z" fill="#3B82F6" stroke-width="0.2"/>
  </g>
  
  <!-- Arrow indicating conversion -->
  <path d="M16 15l2 1v-2l2 2-2 2v-2l-2 1z" fill="white" opacity="0.8"/>
  
  <!-- Right side: PNG/Image file icon -->
  <g transform="translate(20, 8)">
    <!-- File outline -->
    <path d="M1 0h7l2 2v13H1V0z" fill="white" opacity="0.9" stroke="white" stroke-width="0.5"/>
    <!-- Corner fold -->
    <path d="M8 0v2h2l-2-2z" fill="#3B82F6" opacity="0.7"/>
    <!-- PNG text -->
    <text x="5" y="10" font-family="monospace" font-size="2.5" fill="#3B82F6" text-anchor="middle" font-weight="bold">PNG</text>
    <!-- Image icon - mountain and sun -->
    <circle cx="6" cy="5" r="0.5" fill="#3B82F6"/>
    <path d="M2 12l2-2 1.5 1.5 2-3 2.5 3.5H2z" fill="#3B82F6"/>
  </g>
</svg>